<svg>
	<symbol id="heart" viewBox="0 0 19 17" xmlns="http://www.w3.org/2000/svg">
<path d="M17.2422 1.46484C15.3086 -0.1875 12.4609 0.128906 10.668 1.95703L10 2.66016L9.29688 1.95703C7.53906 0.128906 4.65625 -0.1875 2.72266 1.46484C0.507812 3.36328 0.402344 6.73828 2.37109 8.77734L9.19141 15.8086C9.61328 16.2656 10.3516 16.2656 10.7734 15.8086L17.5938 8.77734C19.5625 6.73828 19.457 3.36328 17.2422 1.46484Z" />
	</symbol>

   <symbol xmlns="http://www.w3.org/2000/svg" viewBox="0 0 17 16" id="close">
    <path d="M10.414 8l6.243-6.23a1.034 1.034 0 000-1.466 1.04 1.04 0 00-1.468 0l-6.244 6.23L2.702.304a1.04 1.04 0 00-1.469 0 1.034 1.034 0 000 1.466L7.477 8l-6.244 6.23a1.037 1.037 0 101.469 1.466l6.243-6.23 6.244 6.23a1.037 1.037 0 001.468 0 1.034 1.034 0 000-1.466L10.414 8z"></path>
  </symbol>
	
</svg>