<svg>
	<symbol id="heart" viewBox="0 0 19 17" xmlns="http://www.w3.org/2000/svg">
<path d="M17.2422 1.46484C15.3086 -0.1875 12.4609 0.128906 10.668 1.95703L10 2.66016L9.29688 1.95703C7.53906 0.128906 4.65625 -0.1875 2.72266 1.46484C0.507812 3.36328 0.402344 6.73828 2.37109 8.77734L9.19141 15.8086C9.61328 16.2656 10.3516 16.2656 10.7734 15.8086L17.5938 8.77734C19.5625 6.73828 19.457 3.36328 17.2422 1.46484Z" />
	</symbol>

   <symbol xmlns="http://www.w3.org/2000/svg" viewBox="0 0 17 16" id="close">
    <path d="M10.414 8l6.243-6.23a1.034 1.034 0 000-1.466 1.04 1.04 0 00-1.468 0l-6.244 6.23L2.702.304a1.04 1.04 0 00-1.469 0 1.034 1.034 0 000 1.466L7.477 8l-6.244 6.23a1.037 1.037 0 101.469 1.466l6.243-6.23 6.244 6.23a1.037 1.037 0 001.468 0 1.034 1.034 0 000-1.466L10.414 8z"></path>
  </symbol>

   <symbol xmlns="http://www.w3.org/2000/svg" viewBox="0 0 14 14" id="category-next">
    <path d="M5.938 1.094c-.313.312-.282.781 0 1.093l3.78 3.563H.75A.74.74 0 000 6.5v1c0 .438.313.75.75.75h8.969l-3.781 3.594a.814.814 0 000 1.094l.687.687c.313.281.781.281 1.063 0l6.093-6.094c.281-.281.281-.75 0-1.062L7.687.406c-.28-.281-.75-.281-1.062 0l-.688.688z"></path>
  </symbol>

    <symbol xmlns="http://www.w3.org/2000/svg" viewBox="0 0 54 56" id="unreleased-next">
    <path d="M25.223 23.094c-.312.312-.281.781 0 1.093l3.782 3.563h-8.97a.74.74 0 00-.75.75v1c0 .438.313.75.75.75h8.97l-3.782 3.594a.814.814 0 000 1.093l.688.688c.312.281.781.281 1.062 0l6.094-6.094c.281-.281.281-.75 0-1.062l-6.094-6.063c-.281-.281-.75-.281-1.062 0l-.688.688z"></path>
  </symbol>

   <symbol xmlns="http://www.w3.org/2000/svg" viewBox="0 0 54 56" id="unreleased-prev">
    <path d="M27.317 34.938c.313-.313.281-.782 0-1.094l-3.781-3.594h9a.74.74 0 00.75-.75v-1a.76.76 0 00-.75-.75h-9l3.781-3.563c.281-.312.313-.78 0-1.093l-.688-.688a.775.775 0 00-1.062 0L19.504 28.5a.684.684 0 000 1.031l6.063 6.094c.281.281.75.281 1.063 0l.687-.688z"></path>
  </symbol>

  <symbol xmlns="http://www.w3.org/2000/svg" viewBox="0 0 30 35" id="play">
    <path d="M28.281 14.527L4.906.715C2.98-.415.125.715.125 3.438v27.625c0 2.523 2.656 4.05 4.781 2.789l23.375-13.813c2.059-1.262 2.059-4.25 0-5.512z"></path>
  </symbol>

   <symbol xmlns="http://www.w3.org/2000/svg" viewBox="0 0 14 19" id="story-icon">
    <path d="M12.063.25H1.937C.989.25.25 1.023.25 1.938V18.25L7 14.312l6.75 3.938V1.937A1.71 1.71 0 0012.062.25zm0 15.082L7 12.379l-5.063 2.953V2.148c0-.105.07-.21.211-.21h9.704c.105 0 .21.105.21.21v13.184z"></path>
  </symbol>
	
</svg>